<svg width="61" height="71" viewBox="0 0 61 71" fill="none" xmlns="http://www.w3.org/2000/svg">
<g filter="url(#filter0_d)">
<path d="M11.281 21.25H15.5337H49.5555" stroke="white" stroke-width="2" stroke-linecap="round" stroke-linejoin="round"/>
<path d="M21.9128 21.25V16.5C21.9128 15.2402 22.3609 14.032 23.1584 13.1412C23.9559 12.2504 25.0376 11.75 26.1655 11.75H34.671C35.7989 11.75 36.8806 12.2504 37.6781 13.1412C38.4757 14.032 38.9237 15.2402 38.9237 16.5V21.25M45.3028 21.25V54.5C45.3028 55.7598 44.8547 56.968 44.0572 57.8588C43.2597 58.7496 42.178 59.25 41.0501 59.25H19.7864C18.6585 59.25 17.5768 58.7496 16.7793 57.8588C15.9818 56.968 15.5337 55.7598 15.5337 54.5V21.25H45.3028Z" stroke="white" stroke-width="2" stroke-linecap="round" stroke-linejoin="round"/>
<path d="M26.1655 33.125V47.375" stroke="white" stroke-width="2" stroke-linecap="round" stroke-linejoin="round"/>
<path d="M34.671 33.125V47.375" stroke="white" stroke-width="2" stroke-linecap="round" stroke-linejoin="round"/>
</g>
<defs>
<filter id="filter0_d" x="-5.09811" y="-3" width="71.0327" height="77" filterUnits="userSpaceOnUse" color-interpolation-filters="sRGB">
<feFlood flood-opacity="0" result="BackgroundImageFix"/>
<feColorMatrix in="SourceAlpha" type="matrix" values="0 0 0 0 0 0 0 0 0 0 0 0 0 0 0 0 0 0 127 0"/>
<feOffset/>
<feGaussianBlur stdDeviation="5"/>
<feColorMatrix type="matrix" values="0 0 0 0 0.898039 0 0 0 0 0.898039 0 0 0 0 0.898039 0 0 0 1 0"/>
<feBlend mode="normal" in2="BackgroundImageFix" result="effect1_dropShadow"/>
<feBlend mode="normal" in="SourceGraphic" in2="effect1_dropShadow" result="shape"/>
</filter>
</defs>
</svg>
