<?xml version="1.0" encoding="UTF-8" standalone="no"?>
<!DOCTYPE svg PUBLIC "-//W3C//DTD SVG 1.1//EN" "http://www.w3.org/Graphics/SVG/1.1/DTD/svg11.dtd">
<svg width="100%" height="100%" viewBox="0 0 500 500" version="1.1" xmlns="http://www.w3.org/2000/svg" xmlns:xlink="http://www.w3.org/1999/xlink" xml:space="preserve" xmlns:serif="http://www.serif.com/" style="fill-rule:evenodd;clip-rule:evenodd;stroke-linejoin:round;stroke-miterlimit:2;">
    <rect id="Logo" x="0" y="0" width="500" height="500" style="fill:none;"/>
    <g>
        <path id="Box" d="M500,50l0,400c0,27.596 -22.404,50 -50,50l-400,0c-27.596,0 -50,-22.404 -50,-50l0,-400c0,-27.596 22.404,-50 50,-50l400,0c27.596,0 50,22.404 50,50Z" style="fill:url(#_Linear1);"/>
        <path id="Shadow" d="M500,248.633l0,42.217l-169.912,-169.913l37.587,32.033c2.037,1.852 5,1.481 6.851,-0.555l10.555,-12.406c1.475,-1.804 1.499,-4.478 0.071,-6.224l114.848,114.848Zm0,47.586l0,29.441l-189.354,-189.354l42.772,36.662c3.518,2.962 8.703,2.592 11.665,-0.926c2.492,-3.157 2.599,-7.656 0.053,-10.687l134.864,134.864Zm0,32.033l0,121.748c0,27.596 -22.404,50 -50,50l-168.758,-0l-127.613,-127.613c47.771,41.105 119.984,35.736 161.09,-12.221c35.736,-41.476 36.292,-101.283 4.444,-143.315l30.181,-35.181c1.111,-1.111 0.926,-2.777 -0.185,-4.259l150.841,150.841Z" style="fill:#140b5b;"/>
        <g id="Icon">
            <path d="M349.344,181.67l-30.181,35.181c31.848,42.032 31.292,101.839 -4.444,143.315c-41.106,47.957 -113.319,53.326 -161.09,12.221c-47.957,-41.106 -53.327,-113.134 -12.221,-161.091c32.774,-38.328 85.359,-49.438 129.613,-31.477l32.403,-37.773c0.926,-1.111 2.778,-1.297 4.074,-0.371l41.661,35.736c1.111,1.482 1.296,3.148 0.185,4.259Z" style="fill:#fff;"/>
            <path d="M327.125,290.545c-16.294,-56.104 -73.324,-8.702 -112.208,-32.959c-38.699,-24.256 -20.183,-65.176 -20.183,-65.176c-16.294,5.925 -30.736,15.738 -42.031,28.885c-35.551,41.476 -30.737,104.246 10.739,139.797c41.476,35.551 104.061,30.922 139.797,-10.74c14.998,-17.405 29.811,-39.439 23.886,-59.807Z" style="fill:#140b5b;"/>
            <path d="M353.418,172.968l-42.772,-36.662c-3.518,-2.963 -3.704,-8.148 -0.926,-11.666c2.962,-3.518 8.147,-3.703 11.665,-0.925l42.772,36.662c3.518,2.962 3.704,8.147 0.926,11.665c-2.962,3.518 -8.147,3.888 -11.665,0.926Z" style="fill:#fff;fill-rule:nonzero;"/>
            <path d="M367.675,152.97l-37.587,-32.033c-2.037,-1.666 -2.222,-4.814 -0.556,-6.851l10.554,-12.406c1.667,-2.036 4.815,-2.222 6.851,-0.555l37.588,32.033c2.037,1.666 2.222,4.814 0.556,6.851l-10.555,12.406c-1.851,2.036 -4.814,2.407 -6.851,0.555Z" style="fill:#fff;fill-rule:nonzero;"/>
        </g>
    </g>
    <defs>
        <linearGradient id="_Linear1" x1="0" y1="0" x2="1" y2="0" gradientUnits="userSpaceOnUse" gradientTransform="matrix(3.06162e-14,500,-500,3.06162e-14,267.59,0)"><stop offset="0" style="stop-color:#bacfe5;stop-opacity:1"/><stop offset="1" style="stop-color:#1b2a8f;stop-opacity:1"/></linearGradient>
    </defs>
</svg>
