<?xml version="1.0" encoding="UTF-8" standalone="no"?>
<!DOCTYPE svg PUBLIC "-//W3C//DTD SVG 1.1//EN" "http://www.w3.org/Graphics/SVG/1.1/DTD/svg11.dtd">
<svg width="100%" height="100%" viewBox="0 0 713 300" version="1.1" xmlns="http://www.w3.org/2000/svg" xmlns:xlink="http://www.w3.org/1999/xlink" xml:space="preserve" xmlns:serif="http://www.serif.com/" style="fill-rule:evenodd;clip-rule:evenodd;stroke-linejoin:round;stroke-miterlimit:2;">
    <g>
        <path id="Name" d="M434.9,147l-0,6.15c-0,17 -4.25,28.75 -12.75,35.25c5.5,-0.3 10.6,-1.15 15.3,-2.55l-0,18.45l-45,0c-6.2,0 -12.15,-1.025 -17.85,-3.075c-5.7,-2.05 -10.625,-5.15 -14.775,-9.3c-4.15,-4.15 -6.825,-9.125 -8.025,-14.925c-1.2,-5.8 -1.8,-13.85 -1.8,-24.15l-0,-5.7c-0,-10.3 0.6,-18.35 1.8,-24.15c1.2,-5.8 3.875,-10.775 8.025,-14.925c4.15,-4.15 9.075,-7.25 14.775,-9.3c5.7,-2.05 11.65,-3.075 17.85,-3.075c6.2,0 12.125,1.025 17.775,3.075c5.65,2.05 10.6,5.2 14.85,9.45c4.25,4.25 6.95,9.125 8.1,14.625c1.15,5.5 1.725,13.55 1.725,24.15Zm-20.85,5.25l-0,-7.2c-0,-12.5 -1.7,-20.7 -5.1,-24.6c-3.4,-4.1 -8.9,-6.15 -16.5,-6.15c-7.6,0 -13.2,2.1 -16.8,6.3c-2.6,3.1 -4.1,8.5 -4.5,16.2c-0.2,2.5 -0.3,5.95 -0.3,10.35l-0,5.55c0.1,10.6 0.9,17.85 2.4,21.75c2.8,7.5 9.2,11.25 19.2,11.25c8.7,0 14.5,-2.5 17.4,-7.5c1.9,-3.6 3.05,-7.1 3.45,-10.5c0.5,-4.3 0.75,-9.45 0.75,-15.45Z" style="fill:#fff;fill-rule:nonzero;"/>
        <path d="M515.6,203.4l-14.55,-0l-4.5,-10.2l-24,11.1c-6.7,-0 -12.525,-2.475 -17.475,-7.425c-4.95,-4.95 -7.425,-12.175 -7.425,-21.675l-0,-57.45l19.5,-0l-0,53.25c-0,9.5 3.8,14.25 11.4,14.25l17.55,-9.45l-0,-58.05l19.5,-0l-0,85.65Z" style="fill:#fff;fill-rule:nonzero;"/>
        <path d="M596.45,203.4l-13.05,-0l-6,-10.35l-20.85,11.25c-11.6,-0 -19.4,-4.2 -23.4,-12.6c-2,-4.1 -3.375,-8.525 -4.125,-13.275c-0.75,-4.75 -1.125,-9.7 -1.125,-14.85c-0,-5.15 0.05,-8.95 0.15,-11.4c0.1,-2.45 0.35,-5.3 0.75,-8.55c0.4,-3.25 0.975,-5.975 1.725,-8.175c0.75,-2.2 1.825,-4.475 3.225,-6.825c1.4,-2.35 3.1,-4.225 5.1,-5.625c4.5,-3.1 10.35,-4.65 17.55,-4.65l20.55,-0l19.5,-1.2l-0,86.25Zm-19.5,-27.3l-0,-40.2l-14.85,0c-5.5,0 -9.325,2.1 -11.475,6.3c-2.15,4.2 -3.225,10.475 -3.225,18.825c-0,8.35 1.025,14.225 3.075,17.625c2.05,3.4 5.925,5.1 11.625,5.1l14.85,-7.65Z" style="fill:#fff;fill-rule:nonzero;"/>
        <path d="M663.05,118.05l-5.4,19.2c-1.5,-0.6 -3.2,-0.9 -5.1,-0.9c-5,-0 -11.15,2.15 -18.45,6.45l-0,60.6l-19.5,0l-0,-85.65l14.55,0l4.5,7.5l20.7,-8.55c1,-0.1 2.35,-0.15 4.05,-0.15c1.7,0 3.25,0.5 4.65,1.5Z" style="fill:#fff;fill-rule:nonzero;"/>
        <path d="M712.7,203.4l-12.15,-0c-7.4,-0 -13.025,-2.2 -16.875,-6.6c-3.85,-4.4 -5.775,-9.65 -5.775,-15.75l-0,-45l-8.25,-0l-0,-14.85l8.25,-0l-0,-16.8l19.5,-0l-0,16.8l13.8,-0l-0,14.85l-13.8,-0l-0,43.8c-0,4.7 2.25,7.05 6.75,7.05l8.55,-0l-0,16.5Z" style="fill:#fff;fill-rule:nonzero;"/>
        <g id="Logo">
            <path id="Box" d="M300,30l0,240c0,16.557 -13.443,30 -30,30l-240,-0c-16.557,-0 -30,-13.443 -30,-30l0,-240c0,-16.557 13.443,-30 30,-30l240,0c16.557,0 30,13.443 30,30Z" style="fill:url(#_Linear1);"/>
            <path id="Shadow" d="M300,149.18l0,25.33l-101.947,-101.948l22.552,19.22c1.222,1.111 3,0.889 4.111,-0.333l6.332,-7.444c0.886,-1.082 0.9,-2.687 0.043,-3.734l68.909,68.909Zm0,28.552l0,17.664l-113.613,-113.613l25.664,21.998c2.111,1.777 5.221,1.555 6.999,-0.556c1.495,-1.894 1.559,-4.593 0.032,-6.412l80.918,80.919Zm0,19.219l0,73.049c0,16.557 -13.443,30 -30,30l-101.255,-0l-76.568,-76.568c28.663,24.663 71.991,21.442 96.655,-7.332c21.441,-24.886 21.775,-60.77 2.666,-85.989l18.109,-21.109c0.666,-0.666 0.555,-1.666 -0.111,-2.555l90.504,90.504Z" style="fill:#140b5b;"/>
            <g id="Icon">
                <path d="M209.607,109.002l-18.109,21.109c19.109,25.219 18.775,61.103 -2.666,85.989c-24.664,28.774 -67.992,31.995 -96.655,7.332c-28.774,-24.664 -31.996,-67.88 -7.332,-96.654c19.664,-22.997 51.215,-29.663 77.768,-18.887l19.442,-22.664c0.555,-0.666 1.666,-0.777 2.444,-0.222l24.997,21.442c0.666,0.889 0.777,1.889 0.111,2.555Z" style="fill:#fff;"/>
                <path d="M196.275,174.327c-9.777,-33.662 -43.994,-5.221 -67.325,-19.775c-23.219,-14.554 -12.109,-39.106 -12.109,-39.106c-9.777,3.555 -18.442,9.443 -25.219,17.331c-21.331,24.886 -18.442,62.547 6.443,83.878c24.886,21.331 62.437,18.553 83.879,-6.444c8.998,-10.443 17.886,-23.663 14.331,-35.884Z" style="fill:#140b5b;"/>
                <path d="M212.051,103.781l-25.664,-21.998c-2.11,-1.777 -2.222,-4.888 -0.555,-6.999c1.777,-2.111 4.888,-2.222 6.999,-0.555l25.663,21.997c2.111,1.777 2.222,4.888 0.556,6.999c-1.778,2.111 -4.888,2.333 -6.999,0.556Z" style="fill:#fff;fill-rule:nonzero;"/>
                <path d="M220.605,91.782l-22.552,-19.22c-1.222,-1 -1.334,-2.888 -0.334,-4.11l6.333,-7.444c1,-1.222 2.888,-1.333 4.11,-0.333l22.553,19.22c1.222,1 1.333,2.888 0.333,4.11l-6.332,7.444c-1.111,1.222 -2.889,1.444 -4.111,0.333Z" style="fill:#fff;fill-rule:nonzero;"/>
            </g>
        </g>
    </g>
    <defs>
        <linearGradient id="_Linear1" x1="0" y1="0" x2="1" y2="0" gradientUnits="userSpaceOnUse" gradientTransform="matrix(1.83697e-14,300,-300,1.83697e-14,160.554,0)"><stop offset="0" style="stop-color:#bacfe5;stop-opacity:1"/><stop offset="1" style="stop-color:#1b2a8f;stop-opacity:1"/></linearGradient>
    </defs>
</svg>
