<?xml version="1.0" encoding="UTF-8" standalone="no"?>
<!DOCTYPE svg PUBLIC "-//W3C//DTD SVG 1.1//EN" "http://www.w3.org/Graphics/SVG/1.1/DTD/svg11.dtd">
<svg width="100%" height="100%" viewBox="0 0 460 170" version="1.1" xmlns="http://www.w3.org/2000/svg" xmlns:xlink="http://www.w3.org/1999/xlink" xml:space="preserve" xmlns:serif="http://www.serif.com/" style="fill-rule:evenodd;clip-rule:evenodd;stroke-linejoin:round;stroke-miterlimit:2;">
    <g id="Name">
        <path d="M460,121.807l-8.375,0c-5.1,0 -8.977,-1.516 -11.631,-4.549c-2.654,-3.033 -3.981,-6.651 -3.981,-10.856l0,-31.017l-5.686,-0l-0,-10.236l5.686,-0l0,-11.58l13.441,0l0,11.58l9.512,-0l0,10.236l-9.512,-0l0,30.19c0,3.239 1.551,4.859 4.653,4.859l5.893,0l0,11.373Z" style="fill:#fff;fill-rule:nonzero;"/>
        <path d="M425.778,62.978l-3.723,13.234c-1.033,-0.414 -2.205,-0.621 -3.515,-0.621c-3.446,0 -7.685,1.482 -12.717,4.446l-0,41.77l-13.441,0l0,-59.036l10.029,-0l3.102,5.169l14.268,-5.893c0.689,-0.069 1.62,-0.103 2.791,-0.103c1.172,-0 2.241,0.344 3.206,1.034Z" style="fill:#fff;fill-rule:nonzero;"/>
        <path d="M379.872,121.807l-8.995,0l-4.136,-7.134l-14.371,7.755c-7.996,-0 -13.372,-2.895 -16.129,-8.685c-1.379,-2.826 -2.327,-5.876 -2.844,-9.15c-0.517,-3.274 -0.775,-6.686 -0.775,-10.236c0,-3.55 0.034,-6.169 0.103,-7.858c0.069,-1.689 0.242,-3.653 0.517,-5.893c0.276,-2.24 0.672,-4.119 1.189,-5.635c0.517,-1.516 1.258,-3.084 2.223,-4.704c0.965,-1.62 2.137,-2.912 3.516,-3.877c3.101,-2.137 7.134,-3.206 12.096,-3.206l14.165,0l13.441,-0.827l-0,59.45Zm-13.441,-18.817l-0,-27.709l-10.236,0c-3.791,0 -6.427,1.448 -7.909,4.343c-1.482,2.895 -2.223,7.22 -2.223,12.975c-0,5.756 0.706,9.805 2.119,12.149c1.413,2.343 4.084,3.515 8.013,3.515l10.236,-5.273Z" style="fill:#fff;fill-rule:nonzero;"/>
        <path d="M324.144,121.807l-10.029,0l-3.102,-7.03l-16.542,7.651c-4.619,-0 -8.634,-1.706 -12.045,-5.118c-3.412,-3.412 -5.118,-8.392 -5.118,-14.94l-0,-39.599l13.441,-0l-0,36.704c-0,6.548 2.619,9.822 7.857,9.822l12.097,-6.514l0,-40.012l13.441,-0l-0,59.036Z" style="fill:#fff;fill-rule:nonzero;"/>
        <path d="M268.519,82.932l0,4.239c0,11.718 -2.929,19.817 -8.788,24.297c3.791,-0.207 7.306,-0.793 10.546,-1.757l0,12.717l-31.017,-0c-4.274,-0 -8.375,-0.707 -12.304,-2.12c-3.929,-1.413 -7.323,-3.55 -10.184,-6.41c-2.86,-2.861 -4.704,-6.29 -5.531,-10.288c-0.827,-3.997 -1.241,-9.546 -1.241,-16.646l0,-3.928c0,-7.1 0.414,-12.649 1.241,-16.646c0.827,-3.998 2.671,-7.427 5.531,-10.288c2.861,-2.86 6.255,-4.997 10.184,-6.41c3.929,-1.413 8.03,-2.12 12.304,-2.12c4.273,0 8.357,0.707 12.252,2.12c3.894,1.413 7.306,3.584 10.235,6.514c2.93,2.929 4.791,6.289 5.583,10.08c0.793,3.791 1.189,9.34 1.189,16.646Zm-14.371,3.619l0,-4.963c0,-8.616 -1.172,-14.268 -3.515,-16.956c-2.344,-2.826 -6.135,-4.239 -11.373,-4.239c-5.239,-0 -9.099,1.447 -11.58,4.342c-1.792,2.137 -2.826,5.859 -3.102,11.167c-0.138,1.723 -0.207,4.101 -0.207,7.134l0,3.825c0.069,7.306 0.621,12.304 1.655,14.992c1.93,5.169 6.341,7.754 13.234,7.754c5.996,0 9.994,-1.723 11.993,-5.169c1.31,-2.482 2.102,-4.894 2.378,-7.238c0.345,-2.964 0.517,-6.513 0.517,-10.649Z" style="fill:#fff;fill-rule:nonzero;"/>
    </g>
    <g id="Icon">
        <path id="Box" d="M170,17l0,136c0,9.383 -7.617,17 -17,17l-136,0c-9.383,0 -17,-7.617 -17,-17l0,-136c0,-9.383 7.617,-17 17,-17l136,0c9.383,0 17,7.617 17,17Z" style="fill:url(#_Linear1);"/>
        <path id="Shadow" d="M170,84.535l0,14.354l-57.77,-57.77l12.78,10.891c0.692,0.629 1.699,0.503 2.329,-0.189l3.588,-4.218c0.502,-0.613 0.51,-1.523 0.025,-2.116l39.048,39.048Zm0,16.18l0,10.009l-64.38,-64.38l14.542,12.465c1.196,1.007 2.959,0.881 3.966,-0.315c0.848,-1.073 0.884,-2.603 0.018,-3.633l45.854,45.854Zm0,10.891l0,41.394c0,9.383 -7.617,17 -17,17l-57.378,0l-43.388,-43.389c16.242,13.976 40.795,12.151 54.771,-4.155c12.15,-14.101 12.339,-34.436 1.51,-48.727l10.262,-11.961c0.378,-0.378 0.315,-0.944 -0.063,-1.448l51.286,51.286Z" style="fill:#140b5b;"/>
        <g id="Icon1" serif:id="Icon">
            <path d="M118.777,61.768l-10.262,11.961c10.829,14.291 10.64,34.626 -1.51,48.727c-13.976,16.306 -38.529,18.131 -54.771,4.155c-16.306,-13.976 -18.131,-38.465 -4.155,-54.77c11.143,-13.032 29.022,-16.809 44.068,-10.703l11.017,-12.843c0.315,-0.377 0.945,-0.44 1.385,-0.125l14.165,12.15c0.378,0.504 0.441,1.07 0.063,1.448Z" style="fill:#fff;"/>
            <path d="M111.223,98.785c-5.541,-19.075 -24.931,-2.959 -38.151,-11.206c-13.158,-8.247 -6.862,-22.16 -6.862,-22.16c-5.54,2.015 -10.451,5.351 -14.291,9.821c-12.087,14.102 -10.451,35.444 3.651,47.531c14.102,12.088 35.381,10.514 47.531,-3.651c5.1,-5.918 10.136,-13.41 8.122,-20.335Z" style="fill:#140b5b;"/>
            <path d="M120.162,58.809l-14.542,-12.465c-1.197,-1.007 -1.26,-2.77 -0.315,-3.966c1.007,-1.196 2.77,-1.259 3.966,-0.315l14.542,12.465c1.197,1.007 1.26,2.77 0.315,3.966c-1.007,1.196 -2.77,1.322 -3.966,0.315Z" style="fill:#fff;fill-rule:nonzero;"/>
            <path d="M125.01,52.01l-12.78,-10.891c-0.693,-0.567 -0.756,-1.637 -0.189,-2.33l3.588,-4.218c0.567,-0.692 1.637,-0.755 2.33,-0.189l12.78,10.892c0.692,0.566 0.755,1.636 0.188,2.329l-3.588,4.218c-0.63,0.692 -1.637,0.818 -2.329,0.189Z" style="fill:#fff;fill-rule:nonzero;"/>
        </g>
    </g>
    <defs>
        <linearGradient id="_Linear1" x1="0" y1="0" x2="1" y2="0" gradientUnits="userSpaceOnUse" gradientTransform="matrix(1.04095e-14,170,-170,1.04095e-14,90.9806,0)"><stop offset="0" style="stop-color:#bacfe5;stop-opacity:1"/><stop offset="1" style="stop-color:#1b2a8f;stop-opacity:1"/></linearGradient>
    </defs>
</svg>
