<?xml version="1.0" encoding="UTF-8" standalone="no"?>
<!DOCTYPE svg PUBLIC "-//W3C//DTD SVG 1.1//EN" "http://www.w3.org/Graphics/SVG/1.1/DTD/svg11.dtd">
<svg width="100%" height="100%" viewBox="0 0 500 500" version="1.1" xmlns="http://www.w3.org/2000/svg" xmlns:xlink="http://www.w3.org/1999/xlink" xml:space="preserve" xmlns:serif="http://www.serif.com/" style="fill-rule:evenodd;clip-rule:evenodd;stroke-linejoin:round;stroke-miterlimit:2;">
    <rect id="Icon" x="0" y="0" width="500" height="500" style="fill:none;"/>
    <clipPath id="_clip1">
        <rect x="0" y="0" width="500" height="500"/>
    </clipPath>
    <g clip-path="url(#_clip1)">
        <path d="M415.574,136.117l-50.302,58.634c53.079,70.053 52.154,169.732 -7.407,238.859c-68.509,79.928 -188.864,88.877 -268.484,20.368c-79.928,-68.51 -88.878,-188.557 -20.368,-268.485c54.623,-63.88 142.266,-82.397 216.022,-52.462l54.006,-62.955c1.543,-1.852 4.629,-2.16 6.789,-0.617l69.435,59.56c1.852,2.469 2.161,5.246 0.309,7.098Zm-37.032,181.458c-27.157,-93.506 -122.207,-14.504 -187.013,-54.931c-64.498,-40.427 -33.638,-108.628 -33.638,-108.628c-27.157,9.875 -51.228,26.231 -70.053,48.142c-59.252,69.127 -51.228,173.743 17.899,232.995c69.127,59.252 173.435,51.537 232.995,-17.899c24.997,-29.009 49.685,-65.732 39.81,-99.679Z" style="fill:#2952e1;"/>
        <path d="M422.363,121.613l-71.287,-61.104c-5.863,-4.937 -6.172,-13.578 -1.543,-19.442c4.938,-5.863 13.579,-6.172 19.442,-1.543l71.287,61.104c5.864,4.937 6.172,13.578 1.543,19.442c-4.937,5.863 -13.578,6.48 -19.442,1.543Z" style="fill:#2952e1;fill-rule:nonzero;"/>
        <path d="M446.126,88.283l-62.647,-53.388c-3.394,-2.777 -3.703,-8.023 -0.925,-11.418l17.59,-20.676c2.777,-3.395 8.024,-3.704 11.418,-0.926l62.647,53.388c3.394,2.777 3.703,8.024 0.925,11.418l-17.59,20.677c-3.086,3.394 -8.024,4.012 -11.418,0.925Z" style="fill:#2952e1;fill-rule:nonzero;"/>
    </g>
</svg>
